<svg xmlns="http://www.w3.org/2000/svg" version="1.1" xmlns:xlink="http://www.w3.org/1999/xlink" xmlns:svgjs="http://svgjs.dev/svgjs" width="100%" height="100%" viewBox="0 0 1000 600"><rect width="1000" height="600" x="0" y="0" fill="#a020f0"/><g><rect width="333.3333333333333" height="333.3333333333333" rx="13.333333333333334" ry="13.333333333333334" y="160.33185778302249" fill="#080a52" transform="matrix(0.9050780821302365,0,0,0.9050780821302363,0,4.040810720007798)" x="138.10963439941406"/><path d="M290.4653972988069 270.9087883544777L290.4653972988069 270.9087883544777L290.4653972988069 320.7805840392888Q312.38847457927665 320.7805840392888 335.0166800763696 318.69725067199266L335.0166800763696 318.69725067199266L342.3884750683404 317.9921224553694L344.9205263916695 320.7805840392888L342.3884750683404 333.6972509165246Q314.92052590260573 332.0626355052615 290.4653972988069 332.0626355052615L290.4653972988069 332.0626355052615L290.4653972988069 390.0113543986667L340.5295006790608 389.0818672040269L351.6192444495908 368.76135405224653L358.54232148552853 370.39596946350963L358.54232148552853 401.9985340812627L252.3884736011491 401.9985340812627L251.0102684504763 396.9344314346045L263.7025763496956 391.613918527356Q267.83719180171397 390.0113543986667 269.34360208268197 388.15238000938706Q270.85001236364985 386.29340562010754 270.85001236364985 382.8318671021386L270.85001236364985 382.8318671021386L270.85001236364985 265.1395574911962L251.0102684504763 257.06263428260206L252.3884736011491 251.9985316359439L357.3884753128723 251.9985316359439L357.3884753128723 283.60109625369694L350.4653982769345 285.23571166496004L339.3756545064045 264.9151985131797L296.68334611812145 263.98571131853987Q290.4653972988069 263.98571131853987 290.4653972988069 270.9087883544777Z " fill="#eb2188" transform="matrix(0.9050780821302365,0,0,0.9050780821302363,0,4.040810720007798)"/><path d="M591.6178732030301 277.8564667485149L591.6178732030301 277.8564667485149L591.6178732030301 324.4246968852434Q612.0887404353709 324.4246968852434 633.218027374015 322.4793659348017L633.218027374015 322.4793659348017L640.101506121732 321.8209462284983L642.4658314307304 324.4246968852434L640.101506121732 336.4857487779822Q614.4530657443693 334.95941218609715 591.6178732030301 334.95941218609715L591.6178732030301 334.95941218609715L591.6178732030301 389.06954077684605L638.3656723505686 388.2016238912643L648.7208186406124 369.22716508234026L655.1853030297726 370.75350167422533L655.1853030297726 400.2626757840032L556.0632090626486 400.2626757840032L554.7762978185101 395.5340251660063L566.6278525319706 390.56594920026276Q570.4885862643858 389.06954077684605 571.8952101823975 387.3337070056827Q573.3018341004092 385.5978732345192 573.3018341004092 382.3656310399391L573.3018341004092 382.3656310399391L573.3018341004092 272.46939642421466L554.7762978185101 264.92749797019434L556.0632090626486 260.1988473521975L654.1078889649126 260.1988473521975L654.1078889649126 289.70802146197536L647.6434045757524 291.2343580538604L637.2882582857085 272.25989924493626L597.423937885887 271.3919823593546Q591.6178732030301 271.3919823593546 591.6178732030301 277.8564667485149ZM684.2754827809938 383.2335479255208L684.2754827809938 383.2335479255208L684.2754827809938 269.2371542296345L669.1916858729531 266.87282892063604L667.9047746288148 262.1441783026392L697.4139487385927 251.9985291918738L701.7236049980329 253.7343629630372L701.7236049980329 388.620618249821L718.7527328565152 395.5340251660063L717.4658216123769 400.2626757840032L669.1916858729531 400.2626757840032L667.9047746288148 395.5340251660063L677.6015012125551 391.4338660858445Q681.4622349449703 389.90752949395943 682.868858862982 388.2016238912643Q684.2754827809938 386.46579012010096 684.2754827809938 383.2335479255208ZM768.9721995463806 308.0240605645961L759.2754729626402 312.12421964475794Q755.3848110617567 313.650556236643 755.3848110617567 316.64337308347643Q755.3848110617567 319.6661180987782 756.2527279473384 322.03044340777666L756.2527279473384 322.03044340777666L777.591512065261 379.582311372384L801.7136158507386 314.9374674807814L786.4203217634197 308.0240605645961L787.707233007558 303.29540994659925L829.5168843578215 303.29540994659925L830.8037956019598 308.0240605645961L820.2391521326376 312.57314217178293Q816.1389930524758 314.279047774478 814.4330874497807 317.96021249608316L814.4330874497807 317.96021249608316Q813.7746677434775 319.2471237402215 812.6972536786174 322.03044340777666L812.6972536786174 322.03044340777666L781.9011683247011 400.2626757840032L771.965016393214 401.99850955516655L767.6553601337739 400.2626757840032L734.2555241231125 314.9374674807814L718.9622300357936 308.0240605645961L720.249141279932 303.29540994659925L767.6553601337739 303.29540994659925L768.9721995463806 308.0240605645961ZM851.484160013579 383.2335479255208L851.484160013579 383.2335479255208L851.484160013579 318.79820121319653L836.4003631055384 316.4338759041981L835.1134518614 311.70522528620126L864.6226259711779 301.55957617543584L868.9322822306181 303.29540994659925L868.9322822306181 388.620618249821L885.9614100891004 395.5340251660063L884.674498844962 400.2626757840032L836.4003631055384 400.2626757840032L835.1134518614 395.5340251660063L844.8101784451403 391.4338660858445Q848.7008403460238 389.90752949395943 850.0775360955672 388.2016238912643Q851.484160013579 386.46579012010096 851.484160013579 383.2335479255208ZM859.1457711414727 279.17330616112156Q854.087910670324 279.17330616112156 850.7359558018707 275.8213512926681Q847.3840009334172 272.46939642421466 847.3840009334172 267.4115359530661Q847.3840009334172 262.35367548191755 850.7359558018707 258.9119361080591Q854.087910670324 255.4701967342006 859.1457711414727 255.4701967342006Q864.2036316126212 255.4701967342006 867.6453709864795 258.9119361080591Q871.0871103603381 262.35367548191755 871.0871103603381 267.4115359530661Q871.0871103603381 272.46939642421466 867.6453709864795 275.8213512926681Q864.2036316126212 279.17330616112156 859.1457711414727 279.17330616112156ZM947.5835089654013 330.44025874737866L945.8776033627062 315.35646183933807Q940.9095273969626 313.20163370961797 930.6740937807922 313.20163370961797Q920.4386601646218 313.20163370961797 915.2610870195999 318.37920685463985L915.2610870195999 318.37920685463985Q913.3456842376265 321.4019518699416 913.3456842376265 325.5021109501035L913.3456842376265 325.5021109501035Q913.3456842376265 334.5404178275405 924.3293220655053 338.6405769077023L924.3293220655053 338.6405769077023L946.296597721263 346.391972541001Q955.5743299464466 349.6242147355811 961.1708974500251 356.8369033364498Q966.7674649536036 364.0495919373184 966.7674649536036 373.74631852105875L966.7674649536036 373.74631852105875Q966.7674649536036 387.3337070056827 956.4422468320283 394.6661082804246Q946.0871005419845 401.99850955516655 932.2004303726773 401.99850955516655Q918.2838320349017 401.99850955516655 908.916315304313 397.35964344257474Q899.5487985737243 392.72077732998287 895.2391423142841 387.543204184961L895.2391423142841 387.543204184961L906.2227801421628 369.67608760936525L911.6098504664631 371.172496032782L912.4777673520448 385.5978732345192Q920.0196658060651 389.90752949395943 931.6617233402472 389.90752949395943L931.6617233402472 389.90752949395943Q951.2646736870064 389.90752949395943 951.2646736870064 376.55956635708225L951.2646736870064 376.55956635708225Q951.2646736870064 371.172496032782 947.8229343131479 367.94025383820184Q944.3512667708211 364.7080116436217 936.5998711375224 362.1341891553449L936.5998711375224 362.1341891553449L916.7874236114849 355.6697047661847Q907.9586139133262 352.6469597508829 903.2000351268612 345.7335528346976Q898.4713845088643 338.85007408698067 898.4713845088643 330.2307615681003L898.4713845088643 330.2307615681003Q898.4713845088643 316.64337308347643 909.2455251574647 309.10147462945616Q920.0196658060651 301.55957617543584 934.235545828524 301.55957617543584L934.235545828524 301.55957617543584Q942.8548583474044 301.55957617543584 950.3967568014245 305.0312437177626L950.3967568014245 305.0312437177626Q960.9614002707467 309.55039715648115 964.6126368238836 315.1469646600597L964.6126368238836 315.1469646600597L952.7610821104231 331.96659533926373L947.5835089654013 330.44025874737866Z " fill="#080a52" transform="matrix(0.9050780821302365,0,0,0.9050780821302363,0,4.040810720007798)"/></g></svg>